{
  "accessors": [
    {
      "bufferView": 2,
      "componentType": 5126,
      "count": 65532,
      "max": [
        0.24799999594688416,
        0.39778000116348267,
        0.49303999543190002
      ],
      "min": [
        -0.17876000702381134,
        -0.25575000047683716,
        -0.3972800076007843
      ],
      "type": "VEC3"
    },
    {
      "bufferView": 2,
      "byteOffset": 786384,
      "componentType": 5126,
      "count": 65532,
      "max": [
        0.99999731779098511,
        0.99999970197677612,
        0.99996715784072876
      ],
      "min": [
        -0.99999946355819702,
        -0.99992036819458008,
        -0.99999922513961792
      ],
      "type": "VEC3"
    },
    {
      "bufferView": 3,
      "componentType": 5126,
      "count": 65532,
      "max": [
        0.99850988388061523,
        0.99999815225601196,
        0.99987185001373291,
        1
      ],
      "min": [
        -0.99997752904891968,
        -0.99975162744522095,
        -0.99990624189376831,
        -1
      ],
      "type": "VEC4"
    },
    {
      "bufferView": 1,
      "componentType": 5126,
      "count": 65532,
      "max": [
        0.9828299880027771,
        1
      ],
      "min": [
        0.1594499945640564,
        0.0024800000246614218
      ],
      "type": "VEC2"
    },
    {
      "bufferView": 0,
      "componentType": 5125,
      "count": 369303,
      "max": [
        65531
      ],
      "min": [
        0
      ],
      "type": "SCALAR"
    },
    {
      "bufferView": 2,
      "byteOffset": 1572768,
      "componentType": 5126,
      "count": 65532,
      "max": [
        0.25018998980522156,
        0.27006998658180237,
        0.25312000513076782
      ],
      "min": [
        -0.17274999618530273,
        -0.36221000552177429,
        -0.40474000573158264
      ],
      "type": "VEC3"
    },
    {
      "bufferView": 2,
      "byteOffset": 2359152,
      "componentType": 5126,
      "count": 65532,
      "max": [
        0.9999881386756897,
        0.99983835220336914,
        0.99996930360794067
      ],
      "min": [
        -0.99999910593032837,
        -0.99999314546585083,
        -0.99998027086257935
      ],
      "type": "VEC3"
    },
    {
      "bufferView": 3,
      "byteOffset": 1048512,
      "componentType": 5126,
      "count": 65532,
      "max": [
        0.99988764524459839,
        0.99999696016311646,
        0.99973058700561523,
        1
      ],
      "min": [
        -0.99991321563720703,
        -0.99956035614013672,
        -0.99977642297744751,
        -1
      ],
      "type": "VEC4"
    },
    {
      "bufferView": 1,
      "byteOffset": 524256,
      "componentType": 5126,
      "count": 65532,
      "max": [
        0.98025000095367432,
        1
      ],
      "min": [
        0.00015999999595806003,
        0
      ],
      "type": "VEC2"
    },
    {
      "bufferView": 0,
      "byteOffset": 1477212,
      "componentType": 5125,
      "count": 355542,
      "max": [
        65531
      ],
      "min": [
        0
      ],
      "type": "SCALAR"
    },
    {
      "bufferView": 2,
      "byteOffset": 3145536,
      "componentType": 5126,
      "count": 6785,
      "max": [
        0.093620002269744873,
        0.00046999999904073775,
        -0.28246000409126282
      ],
      "min": [
        -0.17045000195503235,
        -0.36182001233100891,
        -0.40509998798370361
      ],
      "type": "VEC3"
    },
    {
      "bufferView": 2,
      "byteOffset": 3226956,
      "componentType": 5126,
      "count": 6785,
      "max": [
        0.99980229139328003,
        0.55141913890838623,
        0.89561933279037476
      ],
      "min": [
        -0.99996203184127808,
        -0.99575155973434448,
        -0.99998444318771362
      ],
      "type": "VEC3"
    },
    {
      "bufferView": 3,
      "byteOffset": 2097024,
      "componentType": 5126,
      "count": 6785,
      "max": [
        0.96688741445541382,
        0.99749308824539185,
        0.47966033220291138,
        1
      ],
      "min": [
        -0.99983096122741699,
        -0.99983364343643188,
        -0.883370041847229,
        -1
      ],
      "type": "VEC4"
    },
    {
      "bufferView": 1,
      "byteOffset": 1048512,
      "componentType": 5126,
      "count": 6785,
      "max": [
        0.98260998725891113,
        0.90337997674942017
      ],
      "min": [
        0.10999000072479248,
        0.27731999754905701
      ],
      "type": "VEC2"
    },
    {
      "bufferView": 0,
      "byteOffset": 2899380,
      "componentType": 5125,
      "count": 30843,
      "max": [
        6784
      ],
      "min": [
        0
      ],
      "type": "SCALAR"
    },
    {
      "bufferView": 2,
      "byteOffset": 3308376,
      "componentType": 5126,
      "count": 65532,
      "max": [
        0.2378000020980835,
        0.32796001434326172,
        0.37246999144554138
      ],
      "min": [
        -0.26563999056816101,
        -0.27748000621795654,
        -0.49818998575210571
      ],
      "type": "VEC3"
    },
    {
      "bufferView": 2,
      "byteOffset": 4094760,
      "componentType": 5126,
      "count": 65532,
      "max": [
        0.99989503622055054,
        0.99999815225601196,
        0.99999362230300903
      ],
      "min": [
        -0.99997156858444214,
        -0.9999735951423645,
        -0.99999397993087769
      ],
      "type": "VEC3"
    },
    {
      "bufferView": 3,
      "byteOffset": 2205584,
      "componentType": 5126,
      "count": 65532,
      "max": [
        0.99988150596618652,
        0.99999320507049561,
        0.99997073411941528,
        1
      ],
      "min": [
        -0.99999016523361206,
        -0.99994069337844849,
        -0.99993699789047241,
        -1
      ],
      "type": "VEC4"
    },
    {
      "bufferView": 1,
      "byteOffset": 1102792,
      "componentType": 5126,
      "count": 65532,
      "max": [
        0.99993002414703369,
        0.90302997827529907
      ],
      "min": [
        0.00054999999701976776,
        4.9999998736893758e-05
      ],
      "type": "VEC2"
    },
    {
      "bufferView": 0,
      "byteOffset": 3022752,
      "componentType": 5125,
      "count": 375180,
      "max": [
        65531
      ],
      "min": [
        0
      ],
      "type": "SCALAR"
    },
    {
      "bufferView": 2,
      "byteOffset": 4881144,
      "componentType": 5126,
      "count": 9352,
      "max": [
        0.14675000309944153,
        0.15779000520706177,
        -0.20213000476360321
      ],
      "min": [
        -0.21610000729560852,
        -0.14462000131607056,
        -0.49838998913764954
      ],
      "type": "VEC3"
    },
    {
      "bufferView": 2,
      "byteOffset": 4993368,
      "componentType": 5126,
      "count": 9352,
      "max": [
        0.99989384412765503,
        0.99979418516159058,
        0.99062693119049072
      ],
      "min": [
        -0.9999651312828064,
        -0.9992864727973938,
        -0.99997597932815552
      ],
      "type": "VEC3"
    },
    {
      "bufferView": 3,
      "byteOffset": 3254096,
      "componentType": 5126,
      "count": 9352,
      "max": [
        0.99996775388717651,
        0.99831664562225342,
        0.99838042259216309,
        1
      ],
      "min": [
        -0.99982720613479614,
        -0.99994069337844849,
        -0.99990254640579224,
        -1
      ],
      "type": "VEC4"
    },
    {
      "bufferView": 1,
      "byteOffset": 1627048,
      "componentType": 5126,
      "count": 9352,
      "max": [
        1,
        0.87314999103546143
      ],
      "min": [
        0.00060000002849847078,
        0.17949000000953674
      ],
      "type": "VEC2"
    },
    {
      "bufferView": 0,
      "byteOffset": 4523472,
      "componentType": 5125,
      "count": 40080,
      "max": [
        9351
      ],
      "min": [
        0
      ],
      "type": "SCALAR"
    },
    {
      "bufferView": 4,
      "componentType": 5126,
      "count": 197,
      "max": [
        19.333330154418945
      ],
      "min": [
        0.033330000936985016
      ],
      "type": "SCALAR"
    },
    {
      "bufferView": 5,
      "componentType": 5126,
      "count": 197,
      "max": [
        -0.047600001096725464,
        -0.30996999144554138,
        0.2849000096321106
      ],
      "min": [
        -0.088760003447532654,
        -0.44273999333381653,
        0.20815999805927277
      ],
      "type": "VEC3"
    },
    {
      "bufferView": 4,
      "byteOffset": 788,
      "componentType": 5126,
      "count": 182,
      "max": [
        19.333330154418945
      ],
      "min": [
        0.033330000936985016
      ],
      "type": "SCALAR"
    },
    {
      "bufferView": 6,
      "componentType": 5126,
      "count": 182,
      "max": [
        0.051580000668764114,
        0.00052000000141561031,
        0,
        1
      ],
      "min": [
        -0.089019998908042908,
        -0.042350001633167267,
        -0.13025000691413879,
        0.98662000894546509
      ],
      "type": "VEC4"
    },
    {
      "bufferView": 4,
      "byteOffset": 1516,
      "componentType": 5126,
      "count": 181,
      "max": [
        19.333330154418945
      ],
      "min": [
        0.033330000936985016
      ],
      "type": "SCALAR"
    },
    {
      "bufferView": 5,
      "byteOffset": 2364,
      "componentType": 5126,
      "count": 181,
      "max": [
        0,
        0.45120000839233398,
        0.0038900000508874655
      ],
      "min": [
        -0.0078199999406933784,
        0.14139999449253082,
        -0.067060001194477081
      ],
      "type": "VEC3"
    },
    {
      "bufferView": 4,
      "byteOffset": 2240,
      "componentType": 5126,
      "count": 172,
      "max": [
        19.333330154418945
      ],
      "min": [
        0.033330000936985016
      ],
      "type": "SCALAR"
    },
    {
      "bufferView": 6,
      "byteOffset": 2912,
      "componentType": 5126,
      "count": 172,
      "max": [
        0,
        0.10295999795198441,
        0.23456999659538269,
        1
      ],
      "min": [
        -0.072329998016357422,
        0,
        0,
        0.96663999557495117
      ],
      "type": "VEC4"
    }
  ],
  "animations": [
    {
      "channels": [
        {
          "sampler": 0,
          "target": {
            "node": 9,
            "path": "translation"
          }
        },
        {
          "sampler": 1,
          "target": {
            "node": 9,
            "path": "rotation"
          }
        },
        {
          "sampler": 2,
          "target": {
            "node": 5,
            "path": "translation"
          }
        },
        {
          "sampler": 3,
          "target": {
            "node": 5,
            "path": "rotation"
          }
        }
      ],
      "name": "Take 01",
      "samplers": [
        {
          "input": 25,
          "interpolation": "LINEAR",
          "output": 26
        },
        {
          "input": 27,
          "interpolation": "LINEAR",
          "output": 28
        },
        {
          "input": 29,
          "interpolation": "LINEAR",
          "output": 30
        },
        {
          "input": 31,
          "interpolation": "LINEAR",
          "output": 32
        }
      ]
    }
  ],
  "asset": {
    "extras": {
      "author": "Världskulturmuseerna (https://sketchfab.com/varldskulturmuseerna)",
      "license": "CC0-1.0 (http://creativecommons.org/publicdomain/zero/1.0/)",
      "source": "https://sketchfab.com/3d-models/mask-animation-28e7a932fe074667ac6a1b3b324b9e22",
      "title": "Mask- animation"
    },
    "generator": "Sketchfab-7.80.0",
    "version": "2.0"
  },
  "bufferViews": [
    {
      "buffer": 0,
      "byteLength": 4683792,
      "byteOffset": 0,
      "name": "floatBufferViews",
      "target": 34963
    },
    {
      "buffer": 0,
      "byteLength": 1701864,
      "byteOffset": 4683792,
      "byteStride": 8,
      "name": "floatBufferViews",
      "target": 34962
    },
    {
      "buffer": 0,
      "byteLength": 5105592,
      "byteOffset": 6385656,
      "byteStride": 12,
      "name": "floatBufferViews",
      "target": 34962
    },
    {
      "buffer": 0,
      "byteLength": 3403728,
      "byteOffset": 11491248,
      "byteStride": 16,
      "name": "floatBufferViews",
      "target": 34962
    },
    {
      "buffer": 0,
      "byteLength": 2928,
      "byteOffset": 14894976,
      "name": "floatBufferViews"
    },
    {
      "buffer": 0,
      "byteLength": 4536,
      "byteOffset": 14897904,
      "byteStride": 12,
      "name": "floatBufferViews"
    },
    {
      "buffer": 0,
      "byteLength": 5664,
      "byteOffset": 14902440,
      "byteStride": 16,
      "name": "floatBufferViews"
    }
  ],
  "buffers": [
    {
      "byteLength": 14908104,
      "uri": "scene.bin"
    }
  ],
  "images": [
    {
      "uri": "textures/material0.001_baseColor.png"
    },
    {
      "uri": "textures/material0.001_normal.png"
    },
    {
      "uri": "textures/material0_baseColor.png"
    },
    {
      "uri": "textures/material0_normal.png"
    }
  ],
  "materials": [
    {
      "doubleSided": true,
      "emissiveFactor": [
        0,
        0,
        0
      ],
      "name": "material0.001",
      "normalTexture": {
        "index": 1,
        "scale": 1,
        "texCoord": 0
      },
      "pbrMetallicRoughness": {
        "baseColorFactor": [
          1,
          1,
          1,
          1
        ],
        "baseColorTexture": {
          "index": 0,
          "texCoord": 0
        },
        "metallicFactor": 0,
        "roughnessFactor": 0.59999999999999998
      }
    },
    {
      "doubleSided": true,
      "emissiveFactor": [
        0,
        0,
        0
      ],
      "name": "material0",
      "normalTexture": {
        "index": 3,
        "scale": 1,
        "texCoord": 0
      },
      "pbrMetallicRoughness": {
        "baseColorFactor": [
          1,
          1,
          1,
          1
        ],
        "baseColorTexture": {
          "index": 2,
          "texCoord": 0
        },
        "metallicFactor": 0,
        "roughnessFactor": 1
      }
    }
  ],
  "meshes": [
    {
      "name": "Model_0",
      "primitives": [
        {
          "attributes": {
            "NORMAL": 1,
            "POSITION": 0,
            "TANGENT": 2,
            "TEXCOORD_0": 3
          },
          "indices": 4,
          "material": 1,
          "mode": 4
        }
      ]
    },
    {
      "name": "Model_0",
      "primitives": [
        {
          "attributes": {
            "NORMAL": 6,
            "POSITION": 5,
            "TANGENT": 7,
            "TEXCOORD_0": 8
          },
          "indices": 9,
          "material": 1,
          "mode": 4
        }
      ]
    },
    {
      "name": "Model_0",
      "primitives": [
        {
          "attributes": {
            "NORMAL": 11,
            "POSITION": 10,
            "TANGENT": 12,
            "TEXCOORD_0": 13
          },
          "indices": 14,
          "material": 1,
          "mode": 4
        }
      ]
    },
    {
      "name": "Model.001_0",
      "primitives": [
        {
          "attributes": {
            "NORMAL": 16,
            "POSITION": 15,
            "TANGENT": 17,
            "TEXCOORD_0": 18
          },
          "indices": 19,
          "material": 0,
          "mode": 4
        }
      ]
    },
    {
      "name": "Model.001_0",
      "primitives": [
        {
          "attributes": {
            "NORMAL": 21,
            "POSITION": 20,
            "TANGENT": 22,
            "TEXCOORD_0": 23
          },
          "indices": 24,
          "material": 0,
          "mode": 4
        }
      ]
    }
  ],
  "nodes": [
    {
      "children": [
        1
      ],
      "name": "RootNode (gltf orientation matrix)",
      "rotation": [
        -0.70710678118654746,
        -0,
        -0,
        0.70710678118654757
      ]
    },
    {
      "children": [
        2
      ],
      "name": "RootNode (model correction matrix)"
    },
    {
      "children": [
        3,
        5,
        9
      ],
      "name": "Root"
    },
    {
      "children": [
        4
      ],
      "matrix": [
        -0.29086000000000006,
        0.95517000000000007,
        -0.05519000000000001,
        0,
        -0.77110000000000001,
        -0.19988000000000003,
        0.60452000000000006,
        0,
        0.56639000000000006,
        0.21839000000000003,
        0.7946700000000001,
        0,
        4.0762500000000008,
        1.00545,
        5.9038600000000008,
        1
      ],
      "name": "Lamp"
    },
    {
      "name": "Lamp"
    },
    {
      "children": [
        6,
        7,
        8
      ],
      "name": "Model",
      "translation": [
        0,
        0.14139999449253082,
        0.0038900000508874655
      ]
    },
    {
      "mesh": 0,
      "name": "Model_0"
    },
    {
      "mesh": 1,
      "name": "Model_0"
    },
    {
      "mesh": 2,
      "name": "Model_0"
    },
    {
      "children": [
        10,
        11
      ],
      "name": "Model.001",
      "scale": [
        0.70946002006530762,
        0.70946002006530762,
        0.70946002006530762
      ],
      "translation": [
        -0.047600001096725464,
        -0.30996999144554138,
        0.21086999773979187
      ]
    },
    {
      "mesh": 3,
      "name": "Model.001_0"
    },
    {
      "mesh": 4,
      "name": "Model.001_0"
    }
  ],
  "samplers": [
    {
      "magFilter": 9729,
      "minFilter": 9987,
      "wrapS": 10497,
      "wrapT": 10497
    }
  ],
  "scene": 0,
  "scenes": [
    {
      "name": "OSG_Scene",
      "nodes": [
        0
      ]
    }
  ],
  "textures": [
    {
      "sampler": 0,
      "source": 0
    },
    {
      "sampler": 0,
      "source": 1
    },
    {
      "sampler": 0,
      "source": 2
    },
    {
      "sampler": 0,
      "source": 3
    }
  ]
}

